<?xml version="1.0" encoding="UTF-8" standalone="no"?>
<svg width="42px" height="42px" viewBox="0 0 42 42" version="1.1" xmlns="http://www.w3.org/2000/svg" xmlns:xlink="http://www.w3.org/1999/xlink" xmlns:sketch="http://www.bohemiancoding.com/sketch/ns">
    <!-- Generator: Sketch 3.3.2 (12043) - http://www.bohemiancoding.com/sketch -->
    <title>google plus</title>
    <desc>Created with Sketch.</desc>
    <defs></defs>
    <g id="Anonymous" stroke="none" stroke-width="1" fill="none" fill-rule="evenodd" sketch:type="MSPage">
        <g id="Landing" sketch:type="MSArtboardGroup" transform="translate(-1261.000000, -4238.000000)">
            <g id="FOOTER" sketch:type="MSLayerGroup" transform="translate(1.000000, 4198.000000)">
                <g id="social" transform="translate(1114.000000, 39.000000)" sketch:type="MSShapeGroup">
                    <g id="google-plus" transform="translate(146.000000, 1.000000)">
                        <ellipse id="Oval-13-Copy-2" fill="#777C87" cx="21" cy="21" rx="21" ry="21"></ellipse>
                        <path d="M22.0023125,27.2659063 C22.0023125,27.1061875 21.9850938,26.9524063 21.95125,26.8039688 C21.9168125,26.6555313 21.8805938,26.518375 21.8425938,26.3925 C21.8045938,26.2672188 21.7380938,26.136 21.6425,25.9988438 C21.5475,25.8616875 21.4673438,25.7459063 21.402625,25.6503125 C21.3385,25.5553125 21.2375625,25.4430938 21.1004062,25.3136563 C20.96325,25.1842188 20.85875,25.0874375 20.7863125,25.0227188 C20.713875,24.958 20.5921563,24.860625 20.4211563,24.7311875 C20.2495625,24.60175 20.1314063,24.5144688 20.0666875,24.46875 C20.0025625,24.4230313 19.8766875,24.33575 19.69025,24.2063125 C19.5038125,24.076875 19.3874375,23.9967188 19.3417188,23.9664375 C19.212875,23.951 19.0222812,23.9432813 18.771125,23.9432813 C18.3596563,23.9432813 17.9565,23.97 17.5604688,24.0234375 C17.1650312,24.076875 16.7535625,24.171875 16.3278437,24.3090313 C15.9009375,24.4455938 15.5280625,24.62075 15.208625,24.8339063 C14.8885938,25.0470625 14.6261563,25.3326563 14.4207188,25.6906875 C14.2152813,26.048125 14.1125625,26.4554375 14.1125625,26.9120313 C14.1125625,27.4297813 14.2473438,27.8923125 14.5175,28.299625 C14.7876563,28.7069375 15.142125,29.026375 15.5797188,29.2585313 C16.0173125,29.4906875 16.4762812,29.6640625 16.9554375,29.7780625 C17.4351875,29.8926563 17.9185,29.9496563 18.4059687,29.9496563 C18.8548438,29.9496563 19.2829375,29.9015625 19.69025,29.8065625 C20.0975625,29.7115625 20.4799375,29.563125 20.8379688,29.36125 C21.1954063,29.159375 21.4792188,28.8803125 21.6882188,28.5222813 C21.8978125,28.16425 22.0023125,27.7456563 22.0023125,27.2659063 L22.0023125,27.2659063 Z M20.6325312,17.4239063 C20.6325312,16.9667188 20.5695937,16.481625 20.4437188,15.9680313 C20.3184375,15.4538438 20.1397188,14.9574688 19.9069688,14.4777188 C19.6748125,13.9979688 19.355375,13.6025313 18.9480625,13.2902188 C18.54075,12.9785 18.0859375,12.8223438 17.583625,12.8223438 C16.8752813,12.8223438 16.3278437,13.0847813 15.9395312,13.6096563 C15.5512188,14.135125 15.3570625,14.7633125 15.3570625,15.4942188 C15.3570625,15.8516563 15.401,16.2286875 15.4882812,16.6247187 C15.5761563,17.0201563 15.7109375,17.4161875 15.8938125,17.8122188 C16.0760938,18.2076563 16.28925,18.5639063 16.5332813,18.8791875 C16.7767188,19.1956563 17.0735938,19.4521563 17.4239063,19.6504688 C17.773625,19.8481875 18.1429375,19.9473438 18.53125,19.9473438 C19.269875,19.9473438 19.80425,19.7169688 20.1355625,19.2562188 C20.466875,18.7954688 20.6325312,18.1850938 20.6325312,17.4239063 L20.6325312,17.4239063 Z M19.1362812,12 L24.1261563,12 L22.5847812,12.9019063 L21.0434062,12.9019063 C21.5837188,13.2445 22.0023125,13.72425 22.2991875,14.3405625 C22.5960625,14.9574688 22.7445,15.6005 22.7445,16.27025 C22.7445,16.8337188 22.6572188,17.33425 22.4820625,17.7718438 C22.3069063,18.2100313 22.09375,18.5615313 21.8425937,18.828125 C21.5914375,19.0947188 21.3402813,19.3399375 21.089125,19.564375 C20.8379688,19.7894063 20.6242188,20.0215625 20.4496563,20.2614375 C20.2745,20.5007188 20.1872187,20.7578125 20.1872187,21.0315313 C20.1872187,21.2298438 20.2495625,21.424 20.3754375,21.614 C20.5007188,21.8045938 20.6645938,21.986875 20.8664688,22.1620313 C21.06775,22.3371875 21.2904063,22.5200625 21.5344375,22.7106563 C21.777875,22.9006563 22.0213125,23.1120313 22.2653437,23.3441875 C22.5087812,23.5763438 22.7314375,23.8275 22.9333125,24.0976563 C23.1345938,24.3678125 23.2984687,24.6914063 23.42375,25.0684375 C23.549625,25.444875 23.6125625,25.8504063 23.6125625,26.2844375 C23.6125625,27.5022188 23.079375,28.5757188 22.0135938,29.5043438 C20.8569688,30.50125 19.258,31 17.2184687,31 C16.769,31 16.3141875,30.962 15.8534375,30.886 C15.3932813,30.81 14.9289687,30.6823438 14.4605,30.503625 C13.992625,30.3243125 13.579375,30.1034375 13.2219375,29.841 C12.8639062,29.5785625 12.5705938,29.2395313 12.3425938,28.8245 C12.114,28.4100625 12,27.9475313 12,27.4375 C12,26.9731875 12.1407187,26.459 12.4221563,25.896125 C12.6661875,25.40925 13.0313437,24.9882813 13.5188125,24.6344063 C14.0056875,24.2805313 14.557875,24.0097813 15.1741875,23.8239375 C15.7910937,23.6369063 16.3806875,23.5003438 16.9441562,23.4124688 C17.507625,23.3251875 18.0782188,23.2735313 18.6565313,23.2580938 C18.1696562,22.6269375 17.9262188,22.0593125 17.9262188,21.557 C17.9262188,21.4655625 17.9339375,21.3765 17.9487812,21.288625 C17.9642188,21.2013438 17.9832187,21.127125 18.0057812,21.0659688 C18.0289375,21.0054063 18.0592187,20.9234688 18.0972187,20.82075 C18.1358125,20.7180313 18.1619375,20.6360938 18.177375,20.5749375 C17.8727812,20.6129375 17.6061875,20.6325312 17.3781875,20.6325312 C16.244125,20.6325312 15.2715625,20.2590625 14.4605,19.5133125 C13.6500312,18.7675625 13.2445,17.830625 13.2445,16.7042813 C13.2445,15.6385 13.6060937,14.6855313 14.3292813,13.8441875 C15.0524687,13.0028438 15.9430937,12.4643125 17.0011563,12.2285937 C17.716625,12.076 18.4285312,12 19.1362812,12 L19.1362812,12 Z M31,14.9230313 L31,16.3848438 L28.0769688,16.3848438 L28.0769688,19.307875 L26.6151563,19.307875 L26.6151563,16.3848438 L23.692125,16.3848438 L23.692125,14.9230313 L26.6151563,14.9230313 L26.6151563,12 L28.0769688,12 L28.0769688,14.9230313 L31,14.9230313 L31,14.9230313 Z" id="Imported-Layers" fill="#F6F7FB"></path>
                    </g>
                </g>
            </g>
        </g>
    </g>
</svg>